<svg xmlns="http://www.w3.org/2000/svg" viewBox="0 0 64 64" role="img" aria-label="b8im">
  <defs>
    <linearGradient id="bg" x1="8" y1="4" x2="56" y2="60" gradientUnits="userSpaceOnUse">
      <stop offset="0" stop-color="#21d39a" />
      <stop offset="1" stop-color="#007c70" />
    </linearGradient>
    <linearGradient id="shadow" x1="16" y1="10" x2="50" y2="58" gradientUnits="userSpaceOnUse">
      <stop offset="0" stop-color="#ffffff" stop-opacity="0.34" />
      <stop offset="1" stop-color="#ffffff" stop-opacity="0" />
    </linearGradient>
  </defs>
  <rect width="64" height="64" rx="15" fill="url(#bg)" />
  <path d="M12 12h23c9 0 15 5 15 13 0 5-3 9-8 11 6 2 10 7 10 14 0 9-7 14-17 14H12V12Zm12 10v10h10c4 0 6-2 6-5s-2-5-6-5H24Zm0 20v12h11c4 0 7-2 7-6s-3-6-7-6H24Z" fill="#fff" />
  <path d="M24 22h10c4 0 6 2 6 5s-2 5-6 5H24V22Zm0 20h11c4 0 7 2 7 6s-3 6-7 6H24V42Z" fill="#0a8f75" opacity="0.18" />
  <circle cx="14" cy="52" r="5" fill="#0b5c50" />
  <circle cx="24" cy="52" r="3" fill="#bdf7df" />
  <path d="M19 52h5" stroke="#bdf7df" stroke-width="2.6" stroke-linecap="round" />
  <path d="M12 13c0-5 4-9 9-9h23c9 0 16 7 16 16v22c0 5-4 9-9 9h-6c6-3 10-9 10-16 0-16-13-28-30-28H13c-.6 1.8-1 3.8-1 6Z" fill="url(#shadow)" />
</svg>
